<?xml version="1.0" encoding="utf-8"?>
<!-- Generator: Adobe Illustrator 15.1.0, SVG Export Plug-In . SVG Version: 6.00 Build 0)  -->
<!DOCTYPE svg PUBLIC "-//W3C//DTD SVG 1.1//EN" "http://www.w3.org/Graphics/SVG/1.1/DTD/svg11.dtd">
<svg version="1.1" id="Layer_1" xmlns="http://www.w3.org/2000/svg" xmlns:xlink="http://www.w3.org/1999/xlink" x="0px" y="0px"
	 width="392.333px" height="92.667px" viewBox="0 0 392.333 92.667" enable-background="new 0 0 392.333 92.667"
	 xml:space="preserve">
<path id="path11_8_" fill="#A7A9AC" d="M140.683,74.938h-5.638c-3.414,0-6.179-2.767-6.179-6.18v-22.86h5.344
	c4.481,0,8.114-3.633,8.114-8.115c0-0.008,0-0.02,0-0.027h-13.465V12.752c0-4.482-3.632-8.11-8.113-8.11l0,0v64.111
	c0,7.896,6.403,14.298,14.299,14.298h13.75C148.795,78.567,145.159,74.938,140.683,74.938L140.683,74.938z"/>
<path id="path13_8_" fill="#A7A9AC" d="M192.745,37.756L176.39,54.121l-11.458-16.365c-2.847,0-5.15,2.31-5.15,5.154
	c-0.004,1.06,0.324,2.094,0.929,2.961l9.853,14.069L155.57,74.938c-1.854,1.854-1.854,4.867-0.003,6.718
	c0.894,0.896,2.105,1.395,3.369,1.395l16.355-16.345l11.45,16.359c2.849,0.006,5.157-2.301,5.157-5.146
	c0.003-1.06-0.325-2.094-0.935-2.967l-9.85-14.067l14.965-15.015c1.854-1.854,1.863-4.857,0.007-6.721
	C195.199,38.263,193.998,37.762,192.745,37.756z"/>
<path id="path15_8_" fill="#A7A9AC" d="M297.284,74.938h-5.635c-3.416,0-6.177-2.767-6.177-6.18v-22.86h5.343
	c4.474,0,8.106-3.631,8.106-8.109c0-0.002,0-0.002,0-0.006h-13.456V12.752c0-4.482-3.633-8.11-8.12-8.11l0,0v64.111
	c0,7.896,6.408,14.298,14.304,14.298l0,0h13.74c0.008-4.476-3.625-8.109-8.099-8.112C297.284,74.938,297.284,74.938,297.284,74.938z
	"/>
<path id="path17_8_" fill="#A7A9AC" d="M260.059,37.756v37.183c0,4.479,3.638,8.112,8.112,8.112l0,0v-37.18
	C268.171,41.39,264.538,37.756,260.059,37.756L260.059,37.756z"/>
<path id="path19_7_" fill="#A7A9AC" d="M264.117,22.836c-2.236-0.003-4.059,1.813-4.066,4.053c0,2.243,1.816,4.063,4.06,4.065
	c2.238,0.005,4.061-1.808,4.061-4.054c0-0.001,0-0.004,0-0.012C268.171,24.65,266.354,22.838,264.117,22.836z"/>
<path id="path21_8_" fill="#A7A9AC" d="M228.749,37.756h-11.192v8.115h10.979c8.014-0.382,14.829,5.804,15.215,13.821
	c0.38,8.016-5.806,14.829-13.82,15.214c-0.395,0.016-0.788,0.021-1.181,0.008l0,0c-8.416,0-15.252-6.83-15.252-15.252V12.704
	c0.008-4.481-3.618-8.112-8.099-8.115c0,0,0,0-0.006,0v55.313c0,12.753,10.335,23.097,23.094,23.1h0.007l0,0
	c12.503,0,22.858-10.022,22.907-22.522c0.021-12.524-10.116-22.695-22.638-22.723C228.756,37.756,228.756,37.756,228.749,37.756
	L228.749,37.756z"/>
<path id="path23_1_" fill="#A7A9AC" d="M329.092,37.756L329.092,37.756v37.183c0,4.479,3.631,8.112,8.111,8.112l0,0v-37.18
	C337.203,41.39,333.572,37.756,329.092,37.756L329.092,37.756z"/>
<path id="path25_1_" fill="#A7A9AC" d="M333.144,22.836c-2.235,0-4.061,1.817-4.061,4.061c0,2.242,1.825,4.058,4.061,4.058
	c2.245,0,4.06-1.815,4.06-4.058c0,0,0-0.004,0-0.008c0-2.238-1.814-4.053-4.053-4.053C333.15,22.836,333.15,22.836,333.144,22.836z"
	/>
<path id="circle27_1_" fill="#A7A9AC" d="M316.472,74.975c2.208-0.354,4.287,1.144,4.652,3.352c0.352,2.21-1.147,4.293-3.356,4.652
	c-2.208,0.357-4.293-1.143-4.652-3.354C312.762,77.415,314.261,75.332,316.472,74.975z"/>
<path id="path29_1_" fill="#A7A9AC" d="M368.479,37.82c-12.478,0-22.585,10.111-22.585,22.583s10.107,22.584,22.585,22.584
	c12.467,0,22.582-10.112,22.582-22.581v-0.003C391.048,47.938,380.941,37.836,368.479,37.82z M368.479,74.894
	c-7.995,0-14.472-6.478-14.472-14.47c0-7.993,6.477-14.475,14.472-14.475c7.987,0,14.47,6.481,14.47,14.475l0,0
	c-0.02,7.979-6.489,14.442-14.47,14.451V74.894z"/>
<g>
	<defs>
		<circle id="SVGID_1_" cx="46.61" cy="46.316" r="45.367"/>
	</defs>
	<clipPath id="SVGID_2_">
		<use xlink:href="#SVGID_1_"  overflow="visible"/>
	</clipPath>
	<g id="g37_47_" transform="translate(-55.680008,-33.580002)" clip-path="url(#SVGID_2_)">
		<path id="circle31_47_" fill="#FFFFFF" d="M102.29,32.41c26.225,0,47.486,21.262,47.486,47.484
			c0,26.227-21.262,47.487-47.486,47.487c-26.226,0-47.486-21.261-47.486-47.487C54.804,53.672,76.065,32.41,102.29,32.41z"/>
		<path id="path33_47_" fill="#A7A9AC" d="M122.46,81.908c-4.23-7.279-13.56-9.769-20.856-5.558l-3.353,1.938l4.874,8.405
			c-4.577,2.639-10.426,1.07-13.064-3.505l-2.469-4.323l0,0l-6.656-11.451l-10.083,5.821c-2.64-4.571-1.077-10.422,3.493-13.058
			c0.005-0.003,0.007-0.003,0.012-0.006l1.794-1.037l-6.32-10.954c-16.573-6.668-23.301,38.427-12.906,56.429
			c5.073,8.796,19.431,19.771,27.415,16.947l11.589-6.688l0,0l20.942-12.109C124.162,98.537,126.66,89.212,122.46,81.908
			L122.46,81.908z"/>
		<path id="path35_47_" fill="#A7A9AC" d="M125.709,126.16c21.627-12.51,33.219-50.984,20.705-72.652
			c-12.51-21.669-48.023-28.296-69.693-15.789c-0.779,0.45-0.172,2.848,0.62,4.296l7.123,12.356l20.695-11.98
			c2.642,4.571,1.077,10.417-3.493,13.058c-0.003,0-0.003,0-0.008,0.005l-12.407,7.18l4.222,7.316v0.037l3.356-1.941
			c11.81-6.963,27.029-3.033,33.996,8.779c6.963,11.813,3.031,27.032-8.779,33.995c-0.132,0.075-0.263,0.154-0.389,0.225
			l-24.175,13.959C100.337,130.416,117.058,131.186,125.709,126.16z"/>
	</g>
</g>
</svg>
