<?xml version="1.0" encoding="utf-8"?>
<!-- Generator: Adobe Illustrator 15.1.0, SVG Export Plug-In . SVG Version: 6.00 Build 0)  -->
<!DOCTYPE svg PUBLIC "-//W3C//DTD SVG 1.1//EN" "http://www.w3.org/Graphics/SVG/1.1/DTD/svg11.dtd">
<svg version="1.1" id="Layer_1" xmlns="http://www.w3.org/2000/svg" xmlns:xlink="http://www.w3.org/1999/xlink" x="0px" y="0px"
	 width="54.25px" height="54.375px" viewBox="0 0 54.25 54.375" enable-background="new 0 0 54.25 54.375" xml:space="preserve">
<g>
	<defs>
		<path id="SVGID_1_" d="M6.817,46.948v-3.746c0-0.36,0.294-0.651,0.651-0.651h5.641v4.397c0,0.36-0.292,0.652-0.652,0.652H7.468
			C7.111,47.6,6.817,47.308,6.817,46.948 M6.817,23.162V7.46c0-0.36,0.294-0.651,0.651-0.651h39.462
			c0.358,0,0.648,0.291,0.648,0.651v3.946c0,0.358-0.29,0.649-0.648,0.649H14.412c-0.72,0-1.302,0.584-1.302,1.304v10.455H7.468
			C7.111,23.815,6.817,23.522,6.817,23.162 M1.155,0.041C0.523,0.132,0.037,0.674,0.037,1.33v27.961
			c0,0.721,0.583,1.303,1.305,1.303h33.803c0.36,0,0.651,0.291,0.651,0.65v3.876c0,0.357-0.291,0.649-0.651,0.649H1.341
			c-0.722,0-1.305,0.584-1.305,1.303v16.003c0,0.656,0.487,1.2,1.119,1.289h17.616c0.632-0.089,1.117-0.633,1.117-1.289V42.551
			h21.386c0.717,0,1.302-0.584,1.302-1.301V25.115c0-0.718-0.584-1.3-1.302-1.3H19.888v-4.329c0-0.358,0.292-0.651,0.653-0.651
			h32.518c0.719,0,1.303-0.581,1.303-1.301V1.33c0-0.656-0.486-1.198-1.118-1.29H1.155z"/>
	</defs>
	<linearGradient id="SVGID_2_" gradientUnits="userSpaceOnUse" x1="0.0366" y1="27.2031" x2="54.3623" y2="27.2031">
		<stop  offset="0" style="stop-color:#9765FA"/>
		<stop  offset="1" style="stop-color:#2C005C"/>
	</linearGradient>
	<use xlink:href="#SVGID_1_"  overflow="visible" fill="url(#SVGID_2_)"/>
	<clipPath id="SVGID_3_">
		<use xlink:href="#SVGID_1_"  overflow="visible"/>
	</clipPath>
	
		<linearGradient id="SVGID_4_" gradientUnits="userSpaceOnUse" x1="-300.7637" y1="1021.2188" x2="-300.7185" y2="1021.2188" gradientTransform="matrix(1340.0897 -704.5624 -704.5624 -1340.0898 1122572.5 1156653.125)">
		<stop  offset="0" style="stop-color:#9765FA"/>
		<stop  offset="1" style="stop-color:#2C005C"/>
	</linearGradient>
	<polygon clip-path="url(#SVGID_3_)" fill="url(#SVGID_4_)" points="-22.339,11.805 42.597,-22.335 76.739,42.602 11.801,76.743 	
		"/>
</g>
<g>
	<defs>
		<path id="SVGID_5_" d="M1.155,0.041C0.523,0.132,0.037,0.674,0.037,1.33v27.961c0,0.721,0.583,1.303,1.305,1.303h10.074
			l-1.346-6.78H7.468c-0.357,0-0.651-0.293-0.651-0.653V7.46c0-0.36,0.294-0.651,0.651-0.651h39.462
			c5.784,0,7.432,1.524,7.432,5.234V1.33c0-0.656-0.486-1.198-1.118-1.29H1.155z"/>
	</defs>
	<linearGradient id="SVGID_6_" gradientUnits="userSpaceOnUse" x1="0.0366" y1="15.3174" x2="54.3623" y2="15.3174">
		<stop  offset="0" style="stop-color:#9765FA"/>
		<stop  offset="1" style="stop-color:#2C005C"/>
	</linearGradient>
	<use xlink:href="#SVGID_5_"  overflow="visible" fill="url(#SVGID_6_)"/>
	<clipPath id="SVGID_7_">
		<use xlink:href="#SVGID_5_"  overflow="visible"/>
	</clipPath>
	
		<linearGradient id="SVGID_8_" gradientUnits="userSpaceOnUse" x1="-300.4609" y1="1020.9678" x2="-300.4159" y2="1020.9678" gradientTransform="matrix(-1827.3951 834.5104 834.5104 1827.3951 -1401004.25 -1614975.375)">
		<stop  offset="0" style="stop-color:#9765FA"/>
		<stop  offset="1" style="stop-color:#2C005C"/>
	</linearGradient>
	<polygon clip-path="url(#SVGID_7_)" fill="url(#SVGID_8_)" points="65.908,25.322 9.411,51.122 -11.506,5.313 44.988,-20.485 	"/>
</g>
<g>
	<defs>
		<path id="SVGID_9_" d="M0.037,29.292c0,0.721,0.583,1.301,1.305,1.301h33.803c0.36,0,0.651,0.293,0.651,0.65v3.878
			c0,0.357-0.291,0.649-0.651,0.649v6.78h6.13c0.717,0,1.302-0.584,1.302-1.301V25.115c0-0.72-0.584-1.302-1.302-1.302H7.468
			c-4.865,0-7.432-0.463-7.432-4.977V29.292z"/>
	</defs>
	<linearGradient id="SVGID_10_" gradientUnits="userSpaceOnUse" x1="0.0366" y1="30.6934" x2="42.5762" y2="30.6934">
		<stop  offset="0" style="stop-color:#9765FA"/>
		<stop  offset="1" style="stop-color:#2C005C"/>
	</linearGradient>
	<use xlink:href="#SVGID_9_"  overflow="visible" fill="url(#SVGID_10_)"/>
	<clipPath id="SVGID_11_">
		<use xlink:href="#SVGID_9_"  overflow="visible"/>
	</clipPath>
	
		<linearGradient id="SVGID_12_" gradientUnits="userSpaceOnUse" x1="-300.7612" y1="1021.2559" x2="-300.7159" y2="1021.2559" gradientTransform="matrix(1441.6117 383.753 383.753 -1441.6117 41666.0781 1587694.75)">
		<stop  offset="0" style="stop-color:#9765FA"/>
		<stop  offset="1" style="stop-color:#2C005C"/>
	</linearGradient>
	<polygon clip-path="url(#SVGID_11_)" fill="url(#SVGID_12_)" points="2.852,8.261 48.471,20.406 39.762,53.126 -5.859,40.981 	"/>
</g>
<g>
	<defs>
		<path id="SVGID_13_" d="M35.144,35.771H1.341c-0.722,0-1.305,0.582-1.305,1.303v16.003c0,0.657,0.487,1.202,1.121,1.289h6.311
			v-6.768c-0.357,0-0.651-0.291-0.651-0.65v-3.746c0-0.361,0.294-0.651,0.651-0.651h33.806c0.717,0,1.302-0.584,1.302-1.301V30.593
			C42.576,34.656,40.688,35.771,35.144,35.771"/>
	</defs>
	<linearGradient id="SVGID_14_" gradientUnits="userSpaceOnUse" x1="0.0366" y1="42.4795" x2="42.5762" y2="42.4795">
		<stop  offset="0" style="stop-color:#9765FA"/>
		<stop  offset="1" style="stop-color:#2C005C"/>
	</linearGradient>
	<use xlink:href="#SVGID_13_"  overflow="visible" fill="url(#SVGID_14_)"/>
	<clipPath id="SVGID_15_">
		<use xlink:href="#SVGID_13_"  overflow="visible"/>
	</clipPath>
	
		<linearGradient id="SVGID_16_" gradientUnits="userSpaceOnUse" x1="-300.7124" y1="1020.5938" x2="-300.6671" y2="1020.5938" gradientTransform="matrix(-1411.1553 580.7056 580.7056 1411.1553 -1016970.3125 -1265558.5)">
		<stop  offset="0" style="stop-color:#9765FA"/>
		<stop  offset="1" style="stop-color:#2C005C"/>
	</linearGradient>
	<polygon clip-path="url(#SVGID_15_)" fill="url(#SVGID_16_)" points="50.943,50.922 6.196,69.337 -8.329,34.035 36.415,15.624 	"/>
</g>
<g>
	<defs>
		<path id="SVGID_17_" d="M13.109,42.551v4.397c0,0.36-0.292,0.65-0.652,0.65H7.468c-4.254,0-7.432,0-7.432-5.047v10.526
			c0,0.657,0.487,1.202,1.121,1.289h17.61c0.635-0.087,1.121-0.632,1.121-1.289V42.551H13.109z"/>
	</defs>
	<linearGradient id="SVGID_18_" gradientUnits="userSpaceOnUse" x1="0.0366" y1="48.458" x2="19.8882" y2="48.458">
		<stop  offset="0" style="stop-color:#9765FA"/>
		<stop  offset="1" style="stop-color:#2C005C"/>
	</linearGradient>
	<use xlink:href="#SVGID_17_"  overflow="visible" fill="url(#SVGID_18_)"/>
	<clipPath id="SVGID_19_">
		<use xlink:href="#SVGID_17_"  overflow="visible"/>
	</clipPath>
	
		<linearGradient id="SVGID_20_" gradientUnits="userSpaceOnUse" x1="-299.6943" y1="1022.1309" x2="-299.6492" y2="1022.1309" gradientTransform="matrix(494.0735 -320.8094 -320.8094 -494.0735 475981.1563 408917.5313)">
		<stop  offset="0" style="stop-color:#9765FA"/>
		<stop  offset="1" style="stop-color:#2C005C"/>
	</linearGradient>
	<polygon clip-path="url(#SVGID_19_)" fill="url(#SVGID_20_)" points="-5.36,46.056 14.002,33.484 25.286,50.862 5.928,63.433 	"/>
</g>
</svg>
