<?xml version="1.0" encoding="utf-8"?>
<!-- Generator: Adobe Illustrator 15.1.0, SVG Export Plug-In . SVG Version: 6.00 Build 0)  -->
<!DOCTYPE svg PUBLIC "-//W3C//DTD SVG 1.1//EN" "http://www.w3.org/Graphics/SVG/1.1/DTD/svg11.dtd">
<svg version="1.1" id="Layer_1" xmlns="http://www.w3.org/2000/svg" xmlns:xlink="http://www.w3.org/1999/xlink" x="0px" y="0px"
	 width="125.379px" height="126.035px" viewBox="0 0 125.379 126.035" enable-background="new 0 0 125.379 126.035"
	 xml:space="preserve">
<g>
	<defs>
		<path id="SVGID_1_" d="M14.952,110.008V101.3c0-0.838,0.683-1.514,1.514-1.514h13.113v10.222c0,0.838-0.678,1.52-1.514,1.52
			H16.466C15.634,111.527,14.952,110.846,14.952,110.008 M14.952,54.714V18.21c0-0.836,0.683-1.513,1.514-1.513h91.739
			c0.833,0,1.508,0.676,1.508,1.513v9.173c0,0.833-0.675,1.511-1.508,1.511H32.607c-1.673,0-3.028,1.359-3.028,3.032v24.303H16.466
			C15.634,56.229,14.952,55.55,14.952,54.714 M1.79,0.962C0.319,1.172-0.811,2.435-0.811,3.96v65c0,1.68,1.354,3.032,3.032,3.032
			h78.583c0.84,0,1.516,0.676,1.516,1.511v9.012c0,0.833-0.676,1.511-1.516,1.511H2.221c-1.678,0-3.032,1.357-3.032,3.028v37.202
			c0,1.524,1.13,2.79,2.601,2.997h40.953c1.471-0.207,2.596-1.473,2.596-2.997v-24.47h49.717c1.669,0,3.026-1.357,3.026-3.023
			V59.255c0-1.672-1.357-3.025-3.026-3.025H45.338V46.168c0-0.833,0.68-1.513,1.519-1.513h75.595c1.673,0,3.03-1.351,3.03-3.024
			V3.96c0-1.525-1.131-2.788-2.6-2.998H1.79z"/>
	</defs>
	<linearGradient id="SVGID_2_" gradientUnits="userSpaceOnUse" x1="-0.811" y1="64.1074" x2="125.4819" y2="64.1074">
		<stop  offset="0" style="stop-color:#9765FA"/>
		<stop  offset="1" style="stop-color:#2C005C"/>
	</linearGradient>
	<use xlink:href="#SVGID_1_"  overflow="visible" fill="url(#SVGID_2_)"/>
	<clipPath id="SVGID_3_">
		<use xlink:href="#SVGID_1_"  overflow="visible"/>
	</clipPath>
	
		<linearGradient id="SVGID_4_" gradientUnits="userSpaceOnUse" x1="-300.771" y1="1021.1855" x2="-300.6656" y2="1021.1855" gradientTransform="matrix(1340.0897 -704.5624 -704.5624 -1340.0898 1122572.5 1156653.125)">
		<stop  offset="0" style="stop-color:#9765FA"/>
		<stop  offset="1" style="stop-color:#2C005C"/>
	</linearGradient>
	<polygon clip-path="url(#SVGID_3_)" fill="url(#SVGID_4_)" points="-52.828,28.31 98.13,-51.057 177.502,99.904 26.537,179.273 	
		"/>
</g>
<g>
	<defs>
		<path id="SVGID_5_" d="M1.79,0.962C0.319,1.172-0.811,2.435-0.811,3.96v65c0,1.68,1.354,3.032,3.032,3.032h23.422l-3.128-15.763
			h-6.048c-0.832,0-1.514-0.68-1.514-1.516V18.21c0-0.836,0.683-1.513,1.514-1.513h91.739c13.447,0,17.277,3.542,17.277,12.167V3.96
			c0-1.525-1.131-2.788-2.6-2.998H1.79z"/>
	</defs>
	<linearGradient id="SVGID_6_" gradientUnits="userSpaceOnUse" x1="-0.811" y1="36.4771" x2="125.4819" y2="36.4771">
		<stop  offset="0" style="stop-color:#9765FA"/>
		<stop  offset="1" style="stop-color:#2C005C"/>
	</linearGradient>
	<use xlink:href="#SVGID_5_"  overflow="visible" fill="url(#SVGID_6_)"/>
	<clipPath id="SVGID_7_">
		<use xlink:href="#SVGID_5_"  overflow="visible"/>
	</clipPath>
	
		<linearGradient id="SVGID_8_" gradientUnits="userSpaceOnUse" x1="-300.5005" y1="1020.9844" x2="-300.3953" y2="1020.9844" gradientTransform="matrix(-1827.3951 834.5104 834.5104 1827.3951 -1401004.25 -1614975.375)">
		<stop  offset="0" style="stop-color:#9765FA"/>
		<stop  offset="1" style="stop-color:#2C005C"/>
	</linearGradient>
	<polygon clip-path="url(#SVGID_7_)" fill="url(#SVGID_8_)" points="152.323,59.735 20.983,119.711 -27.645,13.219 103.691,-46.757 
			"/>
</g>
<g>
	<defs>
		<path id="SVGID_9_" d="M-0.811,68.96c0,1.68,1.354,3.027,3.032,3.027h78.583c0.84,0,1.516,0.681,1.516,1.512v9.016
			c0,0.833-0.676,1.511-1.516,1.511v15.761h14.252c1.669,0,3.026-1.357,3.026-3.023V59.255c0-1.675-1.357-3.028-3.026-3.028H16.466
			c-11.311,0-17.277-1.079-17.277-11.571V68.96z"/>
	</defs>
	<linearGradient id="SVGID_10_" gradientUnits="userSpaceOnUse" x1="-0.811" y1="72.2207" x2="98.0815" y2="72.2207">
		<stop  offset="0" style="stop-color:#9765FA"/>
		<stop  offset="1" style="stop-color:#2C005C"/>
	</linearGradient>
	<use xlink:href="#SVGID_9_"  overflow="visible" fill="url(#SVGID_10_)"/>
	<clipPath id="SVGID_11_">
		<use xlink:href="#SVGID_9_"  overflow="visible"/>
	</clipPath>
	
		<linearGradient id="SVGID_12_" gradientUnits="userSpaceOnUse" x1="-300.7612" y1="1021.2324" x2="-300.6565" y2="1021.2324" gradientTransform="matrix(1441.6117 383.753 383.753 -1441.6117 41666.0781 1587694.75)">
		<stop  offset="0" style="stop-color:#9765FA"/>
		<stop  offset="1" style="stop-color:#2C005C"/>
	</linearGradient>
	<polygon clip-path="url(#SVGID_11_)" fill="url(#SVGID_12_)" points="5.733,20.073 111.784,48.307 91.54,124.371 -14.519,96.139 	
		"/>
</g>
<g>
	<defs>
		<path id="SVGID_13_" d="M80.803,84.025H2.221c-1.678,0-3.032,1.352-3.032,3.028v37.202c0,1.529,1.13,2.793,2.604,2.997h14.672
			v-15.732c-0.832,0-1.514-0.675-1.514-1.513V101.3c0-0.838,0.683-1.514,1.514-1.514h78.589c1.669,0,3.026-1.357,3.026-3.023V71.987
			C98.082,81.435,93.693,84.025,80.803,84.025"/>
	</defs>
	<linearGradient id="SVGID_14_" gradientUnits="userSpaceOnUse" x1="-0.811" y1="99.6201" x2="98.0815" y2="99.6201">
		<stop  offset="0" style="stop-color:#9765FA"/>
		<stop  offset="1" style="stop-color:#2C005C"/>
	</linearGradient>
	<use xlink:href="#SVGID_13_"  overflow="visible" fill="url(#SVGID_14_)"/>
	<clipPath id="SVGID_15_">
		<use xlink:href="#SVGID_13_"  overflow="visible"/>
	</clipPath>
	
		<linearGradient id="SVGID_16_" gradientUnits="userSpaceOnUse" x1="-300.7373" y1="1020.6348" x2="-300.632" y2="1020.6348" gradientTransform="matrix(-1411.1553 580.7056 580.7056 1411.1553 -1016970.3125 -1265558.5)">
		<stop  offset="0" style="stop-color:#9765FA"/>
		<stop  offset="1" style="stop-color:#2C005C"/>
	</linearGradient>
	<polygon clip-path="url(#SVGID_15_)" fill="url(#SVGID_16_)" points="117.534,119.25 13.509,162.057 -20.258,79.99 83.758,37.188 	
		"/>
</g>
<g>
	<defs>
		<path id="SVGID_17_" d="M29.579,99.786v10.222c0,0.838-0.678,1.513-1.514,1.513H16.466c-9.89,0-17.277,0-17.277-11.734v24.47
			c0,1.529,1.13,2.793,2.604,2.997h40.94c1.476-0.204,2.604-1.468,2.604-2.997v-24.47H29.579z"/>
	</defs>
	<linearGradient id="SVGID_18_" gradientUnits="userSpaceOnUse" x1="-0.811" y1="113.5195" x2="45.3384" y2="113.5195">
		<stop  offset="0" style="stop-color:#9765FA"/>
		<stop  offset="1" style="stop-color:#2C005C"/>
	</linearGradient>
	<use xlink:href="#SVGID_17_"  overflow="visible" fill="url(#SVGID_18_)"/>
	<clipPath id="SVGID_19_">
		<use xlink:href="#SVGID_17_"  overflow="visible"/>
	</clipPath>
	
		<linearGradient id="SVGID_20_" gradientUnits="userSpaceOnUse" x1="-299.7607" y1="1022.0273" x2="-299.6553" y2="1022.0273" gradientTransform="matrix(494.0735 -320.8094 -320.8094 -494.0735 475981.1563 408917.5313)">
		<stop  offset="0" style="stop-color:#9765FA"/>
		<stop  offset="1" style="stop-color:#2C005C"/>
	</linearGradient>
	<polygon clip-path="url(#SVGID_19_)" fill="url(#SVGID_20_)" points="-13.358,107.935 31.654,78.71 57.887,119.109 12.883,148.333 
			"/>
</g>
</svg>
