<?xml version="1.0" encoding="utf-8"?>
<!-- Generator: Adobe Illustrator 15.1.0, SVG Export Plug-In . SVG Version: 6.00 Build 0)  -->
<!DOCTYPE svg PUBLIC "-//W3C//DTD SVG 1.1//EN" "http://www.w3.org/Graphics/SVG/1.1/DTD/svg11.dtd">
<svg version="1.1" id="Layer_1" xmlns="http://www.w3.org/2000/svg" xmlns:xlink="http://www.w3.org/1999/xlink" x="0px" y="0px"
	 width="19px" height="27.5px" viewBox="0 0 19 27.5" enable-background="new 0 0 19 27.5" xml:space="preserve">
<path fill="#F1F2F2" d="M2.047,27.345c0.217,0.085,0.445,0.126,0.67,0.126c0.496,0,0.987-0.203,1.342-0.579
	c3.656-3.865,7.83-7.405,11.862-10.828l2.073-1.767c0.448-0.379,0.686-0.946,0.647-1.527c-0.038-0.585-0.351-1.115-0.843-1.433
	c-2.666-1.716-5.232-3.729-7.721-5.675C7.767,3.851,5.375,1.979,2.874,0.311C2.294-0.076,1.549-0.103,0.946,0.237
	C0.34,0.577-0.026,1.229,0.001,1.925C0.084,4.047,0.18,6.178,0.27,8.307c0.251,5.694,0.506,11.58,0.598,17.343
	C0.882,26.401,1.345,27.074,2.047,27.345z M7.802,8.571c1.92,1.506,3.887,3.045,5.941,4.489l-0.214,0.184
	c-3.025,2.567-6.125,5.197-9.06,8.004c-0.127-4.395-0.318-8.803-0.505-13.103C3.927,7.275,3.889,6.403,3.85,5.533
	C5.192,6.529,6.507,7.561,7.802,8.571z"/>
</svg>
