<?xml version="1.0" encoding="utf-8"?>
<!-- Generator: Adobe Illustrator 15.1.0, SVG Export Plug-In . SVG Version: 6.00 Build 0)  -->
<!DOCTYPE svg PUBLIC "-//W3C//DTD SVG 1.1//EN" "http://www.w3.org/Graphics/SVG/1.1/DTD/svg11.dtd">
<svg version="1.1" id="Layer_1" xmlns="http://www.w3.org/2000/svg" xmlns:xlink="http://www.w3.org/1999/xlink" x="0px" y="0px"
	 width="421.667px" height="421.667px" viewBox="0 0 421.667 421.667" enable-background="new 0 0 421.667 421.667"
	 xml:space="preserve">
<g>
	<defs>
		<path id="SVGID_1_" d="M53.524,363.981V334.96c0-2.792,2.275-5.046,5.046-5.046h43.705v34.067c0,2.794-2.26,5.063-5.047,5.063
			H58.57C55.8,369.044,53.524,366.775,53.524,363.981 M53.524,179.695V58.034c0-2.787,2.275-5.041,5.046-5.041h305.753
			c2.775,0,5.023,2.253,5.023,5.041v30.573c0,2.778-2.248,5.036-5.023,5.036H112.368c-5.575,0-10.093,4.529-10.093,10.104v80.999
			H58.57C55.8,184.746,53.524,182.481,53.524,179.695 M9.659,0.549C4.757,1.25,0.991,5.456,0.991,10.542v216.634
			c0,5.599,4.512,10.105,10.104,10.105h261.901c2.8,0,5.053,2.253,5.053,5.034v30.034c0,2.777-2.253,5.036-5.053,5.036H11.095
			c-5.592,0-10.104,4.523-10.104,10.092v123.991c0,5.08,3.766,9.298,8.668,9.987h136.488c4.902-0.689,8.651-4.907,8.651-9.987
			v-81.555h165.699c5.563,0,10.087-4.523,10.087-10.077V194.828c0-5.569-4.523-10.082-10.087-10.082H154.798v-33.532
			c0-2.778,2.265-5.041,5.063-5.041h251.944c5.575,0,10.099-4.502,10.099-10.082V10.542c0-5.086-3.768-9.292-8.664-9.993H9.659z"/>
	</defs>
	<linearGradient id="SVGID_2_" gradientUnits="userSpaceOnUse" x1="0.9907" y1="211.0024" x2="421.9043" y2="211.0024">
		<stop  offset="0" style="stop-color:#9765FA"/>
		<stop  offset="1" style="stop-color:#2C005C"/>
	</linearGradient>
	<use xlink:href="#SVGID_1_"  overflow="visible" fill="url(#SVGID_2_)"/>
	<clipPath id="SVGID_3_">
		<use xlink:href="#SVGID_1_"  overflow="visible"/>
	</clipPath>
	
		<linearGradient id="SVGID_4_" gradientUnits="userSpaceOnUse" x1="-300.7944" y1="1021.0586" x2="-300.4436" y2="1021.0586" gradientTransform="matrix(1340.0897 -704.5624 -704.5624 -1340.0898 1122572.5 1156659.125)">
		<stop  offset="0" style="stop-color:#9765FA"/>
		<stop  offset="1" style="stop-color:#2C005C"/>
	</linearGradient>
	<polygon clip-path="url(#SVGID_3_)" fill="url(#SVGID_4_)" points="-172.375,91.696 330.744,-172.822 595.28,330.309 
		92.138,594.832 	"/>
</g>
<g>
	<defs>
		<path id="SVGID_5_" d="M9.659,0.549C4.757,1.25,0.991,5.456,0.991,10.542v216.634c0,5.599,4.512,10.105,10.104,10.105h78.061
			l-10.427-52.535H58.57c-2.771,0-5.046-2.265-5.046-5.051V58.034c0-2.787,2.275-5.041,5.046-5.041h305.753
			c44.817,0,57.581,11.807,57.581,40.549V10.542c0-5.086-3.768-9.292-8.664-9.993H9.659z"/>
	</defs>
	<linearGradient id="SVGID_6_" gradientUnits="userSpaceOnUse" x1="0.9907" y1="118.915" x2="421.9043" y2="118.915">
		<stop  offset="0" style="stop-color:#9765FA"/>
		<stop  offset="1" style="stop-color:#2C005C"/>
	</linearGradient>
	<use xlink:href="#SVGID_5_"  overflow="visible" fill="url(#SVGID_6_)"/>
	<clipPath id="SVGID_7_">
		<use xlink:href="#SVGID_5_"  overflow="visible"/>
	</clipPath>
	
		<linearGradient id="SVGID_8_" gradientUnits="userSpaceOnUse" x1="-300.6636" y1="1021.0527" x2="-300.3123" y2="1021.0527" gradientTransform="matrix(-1827.3951 834.5104 834.5104 1827.395 -1401002.75 -1614976.25)">
		<stop  offset="0" style="stop-color:#9765FA"/>
		<stop  offset="1" style="stop-color:#2C005C"/>
	</linearGradient>
	<polygon clip-path="url(#SVGID_7_)" fill="url(#SVGID_8_)" points="511.359,196.432 73.627,396.318 -88.443,41.398 
		349.278,-158.49 	"/>
</g>
<g>
	<defs>
		<path id="SVGID_9_" d="M0.991,227.176c0,5.599,4.512,10.089,10.104,10.089h261.901c2.8,0,5.053,2.27,5.053,5.041v30.044
			c0,2.777-2.253,5.036-5.053,5.036v52.528h47.501c5.563,0,10.087-4.523,10.087-10.077V194.828c0-5.58-4.523-10.092-10.087-10.092
			H58.57c-37.695,0-57.58-3.595-57.58-38.563V227.176z"/>
	</defs>
	<linearGradient id="SVGID_10_" gradientUnits="userSpaceOnUse" x1="0.9907" y1="238.0435" x2="330.584" y2="238.0435">
		<stop  offset="0" style="stop-color:#9765FA"/>
		<stop  offset="1" style="stop-color:#2C005C"/>
	</linearGradient>
	<use xlink:href="#SVGID_9_"  overflow="visible" fill="url(#SVGID_10_)"/>
	<clipPath id="SVGID_11_">
		<use xlink:href="#SVGID_9_"  overflow="visible"/>
	</clipPath>
	
		<linearGradient id="SVGID_12_" gradientUnits="userSpaceOnUse" x1="-300.7549" y1="1021.1455" x2="-300.4043" y2="1021.1455" gradientTransform="matrix(1441.6117 383.753 383.753 -1441.6117 41663.0781 1587694.75)">
		<stop  offset="0" style="stop-color:#9765FA"/>
		<stop  offset="1" style="stop-color:#2C005C"/>
	</linearGradient>
	<polygon clip-path="url(#SVGID_11_)" fill="url(#SVGID_12_)" points="22.8,64.243 376.252,158.34 308.778,411.853 -44.695,317.757 
			"/>
</g>
<g>
	<defs>
		<path id="SVGID_13_" d="M272.996,277.386H11.095c-5.592,0-10.104,4.507-10.104,10.092v123.991c0,5.097,3.766,9.31,8.68,9.987h48.9
			v-52.434c-2.771,0-5.046-2.247-5.046-5.041V334.96c0-2.792,2.275-5.046,5.046-5.046h261.927c5.563,0,10.087-4.523,10.087-10.077
			v-82.572C330.584,268.75,315.956,277.386,272.996,277.386"/>
	</defs>
	<linearGradient id="SVGID_14_" gradientUnits="userSpaceOnUse" x1="0.9907" y1="329.3604" x2="330.584" y2="329.3604">
		<stop  offset="0" style="stop-color:#9765FA"/>
		<stop  offset="1" style="stop-color:#2C005C"/>
	</linearGradient>
	<use xlink:href="#SVGID_13_"  overflow="visible" fill="url(#SVGID_14_)"/>
	<clipPath id="SVGID_15_">
		<use xlink:href="#SVGID_13_"  overflow="visible"/>
	</clipPath>
	
		<linearGradient id="SVGID_16_" gradientUnits="userSpaceOnUse" x1="-300.8418" y1="1020.8066" x2="-300.491" y2="1020.8066" gradientTransform="matrix(-1411.1553 580.7056 580.7056 1411.1553 -1016968.8125 -1265564.5)">
		<stop  offset="0" style="stop-color:#9765FA"/>
		<stop  offset="1" style="stop-color:#2C005C"/>
	</linearGradient>
	<polygon clip-path="url(#SVGID_15_)" fill="url(#SVGID_16_)" points="395.414,394.783 48.718,537.453 -63.823,263.938 
		282.846,121.285 	"/>
</g>
<g>
	<defs>
		<path id="SVGID_17_" d="M102.275,329.914v34.067c0,2.794-2.26,5.041-5.047,5.041H58.57c-32.96,0-57.58,0-57.58-39.108v81.555
			c0,5.097,3.766,9.31,8.68,9.987h136.448c4.919-0.678,8.68-4.891,8.68-9.987v-81.555H102.275z"/>
	</defs>
	<linearGradient id="SVGID_18_" gradientUnits="userSpaceOnUse" x1="0.9907" y1="375.6851" x2="154.7979" y2="375.6851">
		<stop  offset="0" style="stop-color:#9765FA"/>
		<stop  offset="1" style="stop-color:#2C005C"/>
	</linearGradient>
	<use xlink:href="#SVGID_17_"  overflow="visible" fill="url(#SVGID_18_)"/>
	<clipPath id="SVGID_19_">
		<use xlink:href="#SVGID_17_"  overflow="visible"/>
	</clipPath>
	
		<linearGradient id="SVGID_20_" gradientUnits="userSpaceOnUse" x1="-300.0195" y1="1021.6035" x2="-299.6693" y2="1021.6035" gradientTransform="matrix(494.0735 -320.8094 -320.8094 -494.0735 475981.1563 408919.0313)">
		<stop  offset="0" style="stop-color:#9765FA"/>
		<stop  offset="1" style="stop-color:#2C005C"/>
	</linearGradient>
	<polygon clip-path="url(#SVGID_19_)" fill="url(#SVGID_20_)" points="-40.828,357.071 109.191,259.67 196.622,394.316 
		46.63,491.712 	"/>
</g>
</svg>
